<?xml version="1.0" encoding="UTF-8"?>
<svg width="25px" height="25px" viewBox="0 0 25 25" version="1.1" xmlns="http://www.w3.org/2000/svg" xmlns:xlink="http://www.w3.org/1999/xlink">
    <!-- Generator: Sketch 42 (36781) - http://www.bohemiancoding.com/sketch -->
    <title>verified</title>
    <desc>Created with Sketch.</desc>
    <defs>
        <linearGradient x1="50%" y1="0%" x2="50%" y2="100%" id="linearGradient-1">
            <stop stop-color="#1AD6FD" offset="0%"></stop>
            <stop stop-color="#1D67F0" offset="100%"></stop>
        </linearGradient>
    </defs>
    <g id="Page-1" stroke="none" stroke-width="1" fill="none" fill-rule="evenodd">
        <g id="Filled" transform="translate(-200.000000, -500.000000)" fill="url(#linearGradient-1)">
            <g id="verified" transform="translate(200.000000, 500.000000)">
                <path d="M17.876,8.8291 L10.876,16.8291 C10.785,16.9331 10.655,16.9951 10.517,17.0001 L10.5,17.0001 C10.367,17.0001 10.24,16.9471 10.147,16.8531 L7.147,13.8531 C6.951,13.6581 6.951,13.3421 7.147,13.1461 C7.342,12.9511 7.658,12.9511 7.854,13.1461 L10.476,15.7681 L17.124,8.1711 C17.306,7.9631 17.622,7.9431 17.829,8.1241 C18.037,8.3061 18.059,8.6211 17.876,8.8291 M25,12.5001 C25,11.5421 24.447,10.7011 23.645,10.2831 C24.227,9.5901 24.415,8.6011 24.049,7.7171 C23.683,6.8321 22.851,6.2661 21.948,6.1871 C22.221,5.3241 22.017,4.3391 21.339,3.6611 C20.661,2.9841 19.677,2.7771 18.813,3.0521 C18.734,2.1491 18.168,1.3171 17.283,0.9511 C16.398,0.5861 15.41,0.7731 14.717,1.3551 C14.299,0.5531 13.458,0.0001 12.5,0.0001 C11.542,0.0001 10.701,0.5531 10.283,1.3551 C9.59,0.7731 8.602,0.5851 7.717,0.9511 C6.832,1.3171 6.266,2.1491 6.188,3.0521 C5.322,2.7771 4.338,2.9841 3.661,3.6611 C2.983,4.3391 2.779,5.3241 3.052,6.1871 C2.149,6.2661 1.317,6.8321 0.951,7.7171 C0.585,8.6011 0.773,9.5901 1.355,10.2831 C0.553,10.7011 0,11.5421 0,12.5001 C0,13.4581 0.553,14.2991 1.355,14.7171 C0.773,15.4101 0.585,16.3981 0.951,17.2831 C1.317,18.1681 2.149,18.7331 3.053,18.8121 C2.779,19.6761 2.983,20.6611 3.661,21.3391 C4.338,22.0161 5.322,22.2221 6.188,21.9481 C6.266,22.8501 6.832,23.6831 7.717,24.0491 C8.604,24.4151 9.591,24.2271 10.283,23.6441 C10.701,24.4471 11.542,25.0001 12.5,25.0001 C13.458,25.0001 14.299,24.4471 14.717,23.6441 C15.409,24.2261 16.397,24.4131 17.283,24.0491 C18.168,23.6831 18.734,22.8501 18.813,21.9481 C19.677,22.2221 20.661,22.0161 21.339,21.3391 C22.017,20.6611 22.221,19.6761 21.947,18.8121 C22.851,18.7331 23.683,18.1681 24.049,17.2831 C24.415,16.3981 24.227,15.4101 23.645,14.7171 C24.447,14.2991 25,13.4581 25,12.5001" id="Fill-1"></path>
            </g>
        </g>
    </g>
</svg>